<svg xmlns="http://www.w3.org/2000/svg" width="220" height="85" viewBox="0 0 220 85">
  <defs>
    <style>
      .cls-1 {
        fill: #d10018;
      }

      .cls-2, .cls-3 {
        fill: #fff;
      }

      .cls-3 {
        fill-rule: evenodd;
      }
    </style>
  </defs>
  <rect id="Rechteck_9" data-name="Rechteck 9" class="cls-1" width="220" height="72"/>
  <rect id="Rechteck_10" data-name="Rechteck 10" class="cls-2" y="72" width="220" height="6"/>
  <rect id="Rechteck_9_Kopie" data-name="Rechteck 9 Kopie" class="cls-1" y="78" width="220" height="7"/>
  <path id="Form_6" data-name="Form 6" class="cls-3" d="M173,26V58h34V51H182V45h23V39H182V33h25V26H173Z"/>
  <path id="Form_3" data-name="Form 3" class="cls-3" d="M43.367,49.814A2.331,2.331,0,0,1,41,51H23V33H41c1.1,0,1.71-.065,2.341.844A7.388,7.388,0,0,1,44,36V47a7.832,7.832,0,0,1-.633,2.814M53,48.778V37.769c0-3.728-.044-6.572-2.709-9.166C47.838,26.21,45.34,26,41.924,26H14V58H40.777c3.86,0,6.849.08,9.515-2.728A8.495,8.495,0,0,0,53,48.778"/>
  <path id="Form_4" data-name="Form 4" class="cls-3" d="M89.61,36.334l-0.02.449-0.014.658v9.046c0,1.633.3,3.1-1.011,4.059C87.719,51.167,87.045,51,86,51H70a2.986,2.986,0,0,1-2.069-.664,2.4,2.4,0,0,1-.906-1.5,3.693,3.693,0,0,1-.07-1.163l0.02-.454,0.014-.656V37.52c0-1.632-.3-3.1,1.011-4.061,0.846-.62.956-0.459,2-0.459H87a2.013,2.013,0,0,1,1.635.669,2.419,2.419,0,0,1,.906,1.5,5.452,5.452,0,0,1,.069,1.167M98,47.511V38.819c0-4.1.018-7.274-2.942-10.079C92.579,26.39,90.176,26,86.777,26H69.232c-3.539,0-6.034.659-8.488,3.233C58.1,32,58,34.847,58,38.692v8.935a9.555,9.555,0,0,0,4.134,8.348c2.347,1.778,4.313,2.03,7.248,2.03H87.143c3.442,0,6.07-.027,8.468-2.519C97.853,53.154,98,50.759,98,47.511"/>
  <path id="Form_5" data-name="Form 5" class="cls-3" d="M103,26V58h30V51H112V26Z"/>
  <path id="Form_5_Kopie" data-name="Form 5 Kopie" class="cls-3" d="M138,26V58h30V51H147V26Z"/>
</svg>
